# xmcd CD database file
#
# Track frame offsets:
#	150
#	23561
#	41537
#	64907
#
# Disc length: 1101 seconds
#
# Revision: 0
# Processed by: cddbd v1.5.1PL0 Copyright (c) Steve Scherf et al.
# Submitted via: CDex 1.51
#
DISCID=2a044b04
DTITLE=小野綾子 - たましいの島／地球は一つ
DYEAR=2004
DGENRE=JPop
TTITLE0=たましいの島
TTITLE1=地球は一つ
TTITLE2=たましいの島(off vocal version)
TTITLE3=地球は一つ(off vocal version)
EXTD=YEAR: 2004
EXTT0=
EXTT1=
EXTT2=
EXTT3=
PLAYORDER=
